<svg width="200" height="73" viewBox="0 0 200 73" fill="none" xmlns="http://www.w3.org/2000/svg">
<path d="M60.3258 46.3204V25.5816H64.4255V33.8132H74.4051V25.5816H78.4742V46.3204H74.4051V37.2544H64.4255V46.3204H60.3258ZM94.024 46.3204C93.9646 45.3907 93.9249 44.6994 93.9045 44.2463C93.885 43.7718 93.8754 43.4066 93.8754 43.1505L93.9351 36.3958C93.9543 34.2814 93.3628 32.7898 92.1598 31.9216C90.9568 31.0532 89.3922 30.6189 87.4661 30.6189C85.6237 30.6189 84.0495 31.0931 82.7432 32.0409C82.1117 32.485 81.5811 33.0577 81.1871 33.7213C80.7928 34.3853 80.5438 35.1249 80.4562 35.8922H84.0799C84.2378 35.1012 84.5844 34.4985 85.1192 34.0844C85.6745 33.6697 86.4105 33.4631 87.3174 33.4631C88.2246 33.4631 88.9315 33.6697 89.4255 34.0844C89.9192 34.4991 90.1985 35.161 90.1985 36.1294V36.3069L86.6913 36.8718C84.6727 37.1883 83.0393 37.7021 81.791 38.4132C80.5601 39.1072 79.9444 40.2715 79.9444 41.906C79.9294 42.6237 80.0925 43.3342 80.4192 43.9736C80.724 44.5508 81.1495 45.0556 81.6667 45.4538C82.2138 45.8547 82.8273 46.1559 83.4793 46.343C84.1552 46.5427 84.8565 46.6445 85.5616 46.6448C86.6901 46.6448 87.6586 46.4475 88.4667 46.0526C89.2592 45.6901 89.9447 45.1291 90.4568 44.424L90.515 46.3204H94.024ZM85.2015 39.9805C86.2312 39.6243 87.8949 39.2982 90.1922 39.0024V40.0694C90.1922 41.2928 89.8156 42.2207 89.0622 42.8535C88.3207 43.4688 87.3817 43.7949 86.4186 43.7718C85.7219 43.7961 85.0327 43.6213 84.4315 43.2682C84.1814 43.0997 83.9787 42.8694 83.8432 42.5997C83.7078 42.33 83.6441 42.03 83.6586 41.7285C83.6574 40.8988 84.1718 40.3162 85.2015 39.9805ZM99.8667 36.2472C100.074 35.8087 100.391 35.4312 100.787 35.1514C101.146 34.8811 101.563 34.6988 102.005 34.6186C102.434 34.5222 102.872 34.4724 103.311 34.47C103.51 34.47 103.718 34.4799 103.936 34.4991C104.151 34.4991 104.448 34.5087 104.827 34.5282V30.9436C104.688 30.924 104.52 30.9048 104.322 30.8853C104.135 30.8649 103.946 30.8547 103.758 30.8547C103.175 30.8415 102.593 30.9216 102.035 31.0919C101.529 31.267 101.056 31.5273 100.638 31.8619C100.383 32.0595 100.153 32.2889 99.9555 32.5445C99.764 32.7916 99.5856 33.0487 99.4213 33.3144V30.9742H95.709V46.3204H99.5117V38.055C99.5105 37.3048 99.6288 36.7024 99.8667 36.2472ZM110.886 34.8544C111.54 34.2021 112.273 33.8766 113.084 33.8778C113.464 33.8688 113.841 33.9378 114.194 34.0802C114.546 34.2225 114.865 34.4354 115.132 34.7057C115.688 35.2589 115.965 36.0886 115.965 37.1946V46.3204H119.766V37.7871C119.766 36.5045 120.083 35.536 120.717 34.8817C121.371 34.2102 122.104 33.8745 122.915 33.8745C123.295 33.8658 123.673 33.9348 124.026 34.0772C124.378 34.2195 124.698 34.4324 124.965 34.7024C125.518 35.2556 125.795 36.0853 125.796 37.1913V46.3171H129.625V36.5733C129.65 35.6421 129.488 34.7153 129.15 33.8472C128.894 33.1393 128.477 32.5006 127.932 31.9814C127.413 31.5048 126.794 31.1502 126.121 30.9436C125.429 30.7249 124.708 30.6159 123.982 30.6207C122.965 30.6069 121.959 30.8279 121.041 31.2664C120.187 31.6895 119.47 32.346 118.972 33.1595C118.53 32.3219 117.832 31.6475 116.98 31.2339C116.17 30.8246 115.275 30.6117 114.367 30.6126C113.445 30.5937 112.531 30.7859 111.695 31.1742C110.946 31.5288 110.309 32.0823 109.853 32.7739V30.9742H106.141V46.3204H109.934V37.7871C109.934 36.485 110.251 35.5075 110.886 34.8544ZM142.135 46.0832C143.092 45.7087 143.968 45.1556 144.718 44.4529C145.459 43.7294 146.046 42.8631 146.442 41.906C146.885 40.8466 147.105 39.7069 147.087 38.5586C147.109 37.4285 146.889 36.3069 146.442 35.2691C146.055 34.324 145.467 33.4745 144.718 32.7802C143.986 32.0772 143.117 31.5327 142.164 31.1808C140.133 30.4324 137.901 30.4324 135.87 31.1808C134.904 31.5342 134.02 32.0823 133.274 32.7907C132.528 33.4994 131.936 34.3532 131.533 35.2997C131.107 36.3324 130.897 37.4414 130.916 38.5586C130.9 39.7141 131.112 40.8616 131.539 41.9351C131.949 42.885 132.534 43.7493 133.263 44.4838C134.009 45.1829 134.887 45.7267 135.845 46.0832C136.862 46.4625 137.939 46.6526 139.023 46.6448C140.086 46.652 141.142 46.4616 142.135 46.0832ZM135.987 42.0835C135.215 41.1745 134.829 39.9994 134.829 38.5586C134.829 37.1598 135.215 36.024 135.987 35.1514C136.759 34.2625 137.769 33.818 139.017 33.818C139.585 33.8009 140.15 33.912 140.669 34.1427C141.189 34.3736 141.65 34.718 142.017 35.1514C142.789 36.0399 143.175 37.1757 143.176 38.5586C143.176 40.0198 142.79 41.2033 142.017 42.1093C141.65 42.5424 141.189 42.8871 140.669 43.118C140.15 43.3487 139.585 43.4598 139.017 43.4427C137.77 43.4448 136.76 42.9919 135.987 42.0835ZM153.19 34.9141C153.476 34.5892 153.828 34.3288 154.222 34.1502C154.617 33.9715 155.044 33.8787 155.477 33.8778C156.445 33.8778 157.199 34.1937 157.737 34.8252C158.275 35.4375 158.544 36.267 158.544 37.3141V46.3204H162.345V36.7508C162.345 34.7559 161.83 33.2348 160.8 32.188C159.792 31.1421 158.447 30.6189 156.765 30.6189C155.84 30.6084 154.925 30.8111 154.091 31.2114C153.318 31.5685 152.65 32.1195 152.154 32.8108V30.9742H148.404V46.3204H152.207V38.0018C152.207 36.6135 152.535 35.5844 153.19 34.9141ZM167.976 28.545V24.9941H164.114V28.545H167.976ZM167.946 46.3204V30.9742H164.144V46.3204H167.946ZM179.709 46.2607C180.509 46 181.262 45.6096 181.936 45.1051C182.595 44.585 183.159 43.9538 183.6 43.2393C184.066 42.4799 184.369 41.6324 184.491 40.7505H180.719C180.523 41.5574 180.05 42.2703 179.383 42.7646C178.729 43.2186 177.95 43.4568 177.154 43.446C176.026 43.446 175.076 42.9919 174.303 42.0835C173.55 41.155 173.174 39.9799 173.174 38.5586C173.174 37.1757 173.54 36.0399 174.273 35.1514C174.62 34.724 175.059 34.382 175.559 34.1508C176.058 33.9198 176.604 33.806 177.154 33.818C177.964 33.8045 178.756 34.0538 179.413 34.5282C180.08 34.9925 180.547 35.691 180.721 36.4844H184.493C184.391 35.6538 184.126 34.8517 183.712 34.1243C183.298 33.397 182.744 32.7592 182.081 32.2475C181.404 31.7216 180.639 31.3204 179.822 31.0628C178.973 30.7637 178.078 30.6132 177.178 30.6189C176.127 30.6138 175.085 30.8153 174.111 31.2114C173.166 31.5706 172.308 32.1243 171.59 32.8366C170.858 33.5559 170.273 34.4111 169.868 35.3547C169.443 36.3676 169.23 37.4568 169.243 38.5553C169.229 39.6985 169.431 40.8342 169.837 41.9027C170.217 42.8475 170.784 43.7051 171.506 44.4231C172.227 45.1412 173.087 45.7051 174.034 46.0799C175.02 46.4574 176.067 46.6478 177.123 46.6418C177.998 46.6451 178.869 46.5165 179.705 46.2607H179.709Z" fill="#202020"/>
<path d="M24.373 15.1952L33.3583 20.3827V30.758L24.373 35.9454L15.3876 30.758V20.3827L24.373 15.1952ZM15.3876 41.133V51.5081L24.373 56.694L33.3583 51.5081V41.133L24.373 35.9454L15.3876 41.133ZM33.3712 30.758V41.133L42.3568 46.3204L51.3435 41.133V30.758L42.3568 25.5735L33.3712 30.758Z" fill="#FE5D45"/>
</svg>
